<svg xmlns="http://www.w3.org/2000/svg" width="430" height="430" style="width:100%;height:100%;transform:translate3d(0,0,0);content-visibility:visible" viewBox="0 0 430 430"><defs><clipPath id="p"><path d="M0 0h430v430H0z"/></clipPath><clipPath id="C"><path d="M0 0h430v430H0z"/></clipPath><clipPath id="h"><path d="M0 0h430v430H0z"/></clipPath><clipPath id="z"><path d="M0 0h430v430H0z"/></clipPath><clipPath id="j"><path d="M0 0h430v430H0z"/></clipPath><clipPath id="w"><path d="M0 0h430v430H0z"/></clipPath><clipPath id="k"><path d="M0 0h430v430H0z"/></clipPath><clipPath id="t"><path d="M0 0h430v430H0z"/></clipPath><clipPath id="l"><path d="M0 0h430v430H0z"/></clipPath><clipPath id="m"><path d="M0 0h430v430H0z"/></clipPath><clipPath id="q"><path d="M0 0h430v430H0z"/></clipPath><clipPath id="o"><path d="M0 0h430v430H0z"/></clipPath><mask id="i" mask-type="alpha"><use xmlns:ns1="http://www.w3.org/1999/xlink" ns1:href="#a"/></mask><mask id="E" mask-type="alpha"><use xmlns:ns2="http://www.w3.org/1999/xlink" ns2:href="#b"/></mask><mask id="A" mask-type="alpha"><use xmlns:ns3="http://www.w3.org/1999/xlink" ns3:href="#c"/></mask><mask id="y" mask-type="alpha"><use xmlns:ns4="http://www.w3.org/1999/xlink" ns4:href="#d"/></mask><mask id="n" mask-type="alpha"><use xmlns:ns5="http://www.w3.org/1999/xlink" ns5:href="#e"/></mask><mask id="v" mask-type="alpha"><use xmlns:ns6="http://www.w3.org/1999/xlink" ns6:href="#f"/></mask><mask id="s" mask-type="alpha"><use xmlns:ns7="http://www.w3.org/1999/xlink" ns7:href="#g"/></mask><filter id="D" width="300%" height="300%" x="-100%" y="-100%"><feGaussianBlur result="filter_result_0"/></filter><filter id="B" width="300%" height="300%" x="-100%" y="-100%"><feGaussianBlur result="filter_result_0" stdDeviation="52.5 52.5"/></filter><filter id="x" width="300%" height="300%" x="-100%" y="-100%"><feGaussianBlur result="filter_result_0"/></filter><filter id="u" width="300%" height="300%" x="-100%" y="-100%"><feGaussianBlur result="filter_result_0"/></filter><filter id="r" width="300%" height="300%" x="-100%" y="-100%"><feGaussianBlur result="filter_result_0"/></filter><g id="b" clip-path="url(#h)" style="display:none"><g mask="url(#i)" style="display:none"><path fill-opacity="0" stroke-linecap="round" stroke-linejoin="round" class="secondary"/></g><path fill-opacity="0" stroke-linecap="round" stroke-linejoin="round" class="primary" style="display:none"/></g><g id="c" fill-opacity="0" stroke-linecap="round" stroke-linejoin="round" stroke-width="12" clip-path="url(#j)" style="display:block"><path stroke="#121331" d="M-118.434 118.434c65.422 65.422 171.446 65.422 236.868 0s65.422-171.446 0-236.868-171.446-65.422-236.868 0-65.422 171.446 0 236.868z" class="primary" style="display:block" transform="translate(213.5 213.5)"/><path stroke="#08A88A" d="M6.9 94-2.2 2.2-94-6.9 94-94 6.9 94z" class="secondary" style="display:block" transform="translate(196.6 230)"/></g><g id="d" fill-opacity="0" stroke-linecap="round" stroke-linejoin="round" clip-path="url(#k)" style="display:none"><path class="primary" style="display:none"/><path class="secondary" style="display:none"/></g><g id="f" fill-opacity="0" stroke-linecap="round" stroke-linejoin="round" clip-path="url(#l)" style="display:none"><g clip-path="url(#m)" mask="url(#n)" style="display:none"><path class="secondary" style="display:none"/><path class="secondary" style="display:none"/></g><path class="primary" style="display:none"/></g><g id="g" fill-opacity="0" stroke-linecap="round" stroke-linejoin="round" clip-path="url(#o)" style="display:none"><path class="primary" style="display:none"/><path class="secondary" style="display:none"/></g><path id="a" style="display:none"/><path id="e" style="display:none"/></defs><g clip-path="url(#p)"><g clip-path="url(#q)" filter="url(#r)" mask="url(#s)" style="display:none"><g class="design"><path class="primary"/></g><g class="design"><path class="secondary"/></g></g><g clip-path="url(#t)" filter="url(#u)" mask="url(#v)" style="display:none"><g class="design"><path class="primary"/></g><g class="design"><path class="secondary"/></g></g><g clip-path="url(#w)" filter="url(#x)" mask="url(#y)" style="display:none"><g class="design"><path class="primary"/></g><g class="design"><path class="secondary"/></g></g><g clip-path="url(#z)" mask="url(#A)" style="display:block"><g filter="url(#B)" transform="rotate(-94 238.762 -16.565) scale(2.4)"><g class="design"><path fill="#4BE1EC" d="M0-250c137.975 0 250 112.025 250 250S137.975 250 0 250-250 137.975-250 0-137.975-250 0-250z" class="primary"/></g><g class="design"><path fill="#CB5EEE" d="M113.242-295.384c97.478 0 176.5 79.022 176.5 176.5s-79.022 176.5-176.5 176.5c-43.948 0-74.396-34.057-105.29-60.631-37.631-32.369-71.21-62.338-71.21-115.869 0-97.478 79.022-176.5 176.5-176.5z" class="secondary"/></g></g></g><g clip-path="url(#C)" filter="url(#D)" mask="url(#E)" style="display:none"><g class="design"><path class="primary"/></g><g class="design"><path class="secondary"/></g></g></g></svg>